<svg xmlns="http://www.w3.org/2000/svg" xmlns:xlink="http://www.w3.org/1999/xlink" width="2000" zoomAndPan="magnify" viewBox="0 0 1500 899.99999" height="1200" preserveAspectRatio="xMidYMid meet" version="1.0"><defs><g/></defs><rect x="-150" width="1800" fill="#ffffff" y="-89.999999" height="1079.999988" fill-opacity="1"/><rect x="-150" width="1800" fill="#ffffff" y="-89.999999" height="1079.999988" fill-opacity="1"/><path fill="#ffffff" d="M 0 0 L 1500 0 L 1500 450 L 0 450 Z M 0 0 " fill-opacity="1" fill-rule="nonzero"/><g fill="#000000" fill-opacity="1"><g transform="translate(38.232527, 450.499943)"><g><path d="M 90.4375 3.0625 C 63.238281 3.0625 44.082031 -5.039062 32.96875 -21.25 C 21.863281 -37.457031 16.3125 -59.835938 16.3125 -88.390625 L 16.3125 -185.625 C 16.3125 -215.769531 21.75 -238.660156 32.625 -254.296875 C 43.507812 -269.941406 62.78125 -277.765625 90.4375 -277.765625 C 115.144531 -277.765625 132.878906 -271.078125 143.640625 -257.703125 C 154.410156 -244.335938 159.796875 -224.617188 159.796875 -198.546875 L 159.796875 -176.796875 L 123.421875 -176.796875 L 123.421875 -196.171875 C 123.421875 -208.859375 122.851562 -218.601562 121.71875 -225.40625 C 120.582031 -232.207031 117.691406 -237.644531 113.046875 -241.71875 C 108.398438 -245.800781 100.976562 -247.84375 90.78125 -247.84375 C 80.351562 -247.84375 72.585938 -245.632812 67.484375 -241.21875 C 62.390625 -236.800781 59.046875 -230.679688 57.453125 -222.859375 C 55.867188 -215.035156 55.078125 -204.550781 55.078125 -191.40625 L 55.078125 -82.28125 C 55.078125 -68.226562 56.207031 -57.234375 58.46875 -49.296875 C 60.738281 -41.359375 64.421875 -35.691406 69.515625 -32.296875 C 74.617188 -28.898438 81.707031 -27.203125 90.78125 -27.203125 C 100.519531 -27.203125 107.769531 -29.351562 112.53125 -33.65625 C 117.289062 -37.96875 120.296875 -43.863281 121.546875 -51.34375 C 122.796875 -58.820312 123.421875 -69.019531 123.421875 -81.9375 L 123.421875 -102.328125 L 159.796875 -102.328125 L 159.796875 -81.9375 C 159.796875 -54.507812 154.640625 -33.484375 144.328125 -18.859375 C 134.015625 -4.242188 116.050781 3.0625 90.4375 3.0625 Z M 90.4375 3.0625 "/></g></g></g><g fill="#000000" fill-opacity="1"><g transform="translate(239.164446, 450.499943)"><g><path d="M 21.421875 -275.390625 L 59.84375 -275.390625 L 59.84375 -27.53125 L 130.21875 -27.53125 L 130.21875 0 L 21.421875 0 Z M 21.421875 -275.390625 "/></g></g></g><g fill="#000000" fill-opacity="1"><g transform="translate(399.978235, 450.499943)"><g><path d="M 23.453125 -275.390625 L 61.203125 -275.390625 L 61.203125 0 L 23.453125 0 Z M 23.453125 -275.390625 "/></g></g></g><g fill="#000000" fill-opacity="1"><g transform="translate(510.134388, 450.499943)"><g><path d="M 25.84375 -275.390625 L 63.578125 -275.390625 L 112.1875 -52.015625 L 161.15625 -275.390625 L 198.546875 -275.390625 L 203.65625 0 L 172.71875 0 L 169.65625 -199.90625 L 123.078125 0 L 101.3125 0 L 55.078125 -199.90625 L 52.015625 0 L 20.734375 0 Z M 25.84375 -275.390625 "/></g></g></g><g fill="#000000" fill-opacity="1"><g transform="translate(760.364066, 450.499943)"><g><path d="M 21.421875 -275.390625 L 84.65625 -275.390625 C 109.582031 -275.390625 128.050781 -269.78125 140.0625 -258.5625 C 152.082031 -247.34375 158.09375 -229.945312 158.09375 -206.375 C 158.09375 -171.238281 144.945312 -151.859375 118.65625 -148.234375 C 134.976562 -144.378906 146.878906 -136.726562 154.359375 -125.28125 C 161.835938 -113.832031 165.578125 -98.25 165.578125 -78.53125 C 165.578125 -53.832031 159.738281 -34.566406 148.0625 -20.734375 C 136.382812 -6.910156 118.648438 0 94.859375 0 L 21.421875 0 Z M 82.609375 -160.46875 C 98.484375 -160.46875 109.476562 -163.925781 115.59375 -170.84375 C 121.71875 -177.757812 124.78125 -189.601562 124.78125 -206.375 C 124.78125 -218.613281 122.910156 -227.617188 119.171875 -233.390625 C 115.429688 -239.171875 109.816406 -242.851562 102.328125 -244.4375 C 94.847656 -246.03125 83.742188 -246.828125 69.015625 -246.828125 L 59.84375 -246.828125 L 59.84375 -160.46875 Z M 85.671875 -27.53125 C 97.003906 -27.53125 105.785156 -29.285156 112.015625 -32.796875 C 118.253906 -36.316406 122.617188 -41.703125 125.109375 -48.953125 C 127.609375 -56.210938 128.859375 -66.070312 128.859375 -78.53125 C 128.859375 -96.21875 125.226562 -109.421875 117.96875 -118.140625 C 110.71875 -126.867188 98.929688 -131.234375 82.609375 -131.234375 L 59.84375 -131.234375 L 59.84375 -27.53125 Z M 85.671875 -27.53125 "/></g></g></g><g fill="#000000" fill-opacity="1"><g transform="translate(964.35586, 450.499943)"><g><path d="M 23.453125 -275.390625 L 61.203125 -275.390625 L 61.203125 0 L 23.453125 0 Z M 23.453125 -275.390625 "/></g></g></g><g fill="#000000" fill-opacity="1"><g transform="translate(1074.512013, 450.499943)"><g><path d="M 21.421875 -275.390625 L 47.59375 -275.390625 L 125.796875 -92.46875 L 125.796875 -275.390625 L 157.75 -275.390625 L 157.75 0 L 133.28125 0 L 54.0625 -188.015625 L 54.0625 0 L 21.421875 0 Z M 21.421875 -275.390625 "/></g></g></g><g fill="#000000" fill-opacity="1"><g transform="translate(1279.863687, 450.499943)"><g><path d="M 87.03125 3.40625 C 62.101562 3.40625 44.082031 -4.46875 32.96875 -20.21875 C 21.863281 -35.976562 16.3125 -59.382812 16.3125 -90.4375 L 16.3125 -182.578125 C 16.3125 -203.878906 18.519531 -221.382812 22.9375 -235.09375 C 27.363281 -248.8125 34.957031 -259.351562 45.71875 -266.71875 C 56.488281 -274.082031 71.28125 -277.765625 90.09375 -277.765625 C 115.476562 -277.765625 133.78125 -271.304688 145 -258.390625 C 156.21875 -245.472656 161.828125 -225.1875 161.828125 -197.53125 L 161.828125 -187.328125 L 125.796875 -187.328125 L 125.796875 -195.828125 C 125.796875 -208.972656 125 -219.113281 123.40625 -226.25 C 121.820312 -233.394531 118.476562 -238.78125 113.375 -242.40625 C 108.28125 -246.03125 100.75 -247.84375 90.78125 -247.84375 C 80.125 -247.84375 72.1875 -245.40625 66.96875 -240.53125 C 61.757812 -235.664062 58.414062 -229.148438 56.9375 -220.984375 C 55.46875 -212.828125 54.734375 -201.945312 54.734375 -188.34375 L 54.734375 -86.359375 C 54.734375 -65.273438 57.28125 -50.144531 62.375 -40.96875 C 67.476562 -31.789062 77.285156 -27.203125 91.796875 -27.203125 C 106.078125 -27.203125 115.878906 -32.1875 121.203125 -42.15625 C 126.523438 -52.132812 129.1875 -68.113281 129.1875 -90.09375 L 129.1875 -109.140625 L 94.171875 -109.140625 L 94.171875 -136.328125 L 163.875 -136.328125 L 163.875 0 L 139.734375 0 L 136 -31.625 C 127.382812 -8.269531 111.0625 3.40625 87.03125 3.40625 Z M 87.03125 3.40625 "/></g></g></g><path fill="#000000" d="M 0 450 L 1500 450 L 1500 900 L 0 900 Z M 0 450 " fill-opacity="1" fill-rule="nonzero"/><g fill="#ffffff" fill-opacity="1"><g transform="translate(115.362189, 722.500031)"><g><path d="M 20.734375 -275.390625 L 81.59375 -275.390625 L 81.59375 0 L 20.734375 0 Z M 20.734375 -275.390625 "/></g></g></g><g fill="#ffffff" fill-opacity="1"><g transform="translate(217.69745, 722.500031)"><g><path d="M 20.40625 -275.390625 L 63.234375 -275.390625 L 119.671875 -142.796875 L 119.671875 -275.390625 L 170 -275.390625 L 170 0 L 128.859375 0 L 72.421875 -142.796875 L 72.421875 0 L 20.40625 0 Z M 20.40625 -275.390625 "/></g></g></g><g fill="#ffffff" fill-opacity="1"><g transform="translate(408.428634, 722.500031)"><g><path d="M 20.40625 -275.390625 L 90.09375 -275.390625 C 113.894531 -275.390625 132.476562 -272.441406 145.84375 -266.546875 C 159.21875 -260.648438 168.679688 -251.410156 174.234375 -238.828125 C 179.796875 -226.253906 182.578125 -209.425781 182.578125 -188.34375 L 182.578125 -88.390625 C 182.578125 -67.085938 179.796875 -50.085938 174.234375 -37.390625 C 168.679688 -24.703125 159.273438 -15.296875 146.015625 -9.171875 C 132.765625 -3.054688 114.351562 0 90.78125 0 L 20.40625 0 Z M 90.78125 -42.15625 C 99.613281 -42.15625 106.125 -43.457031 110.3125 -46.0625 C 114.507812 -48.675781 117.175781 -52.414062 118.3125 -57.28125 C 119.445312 -62.15625 120.015625 -69.351562 120.015625 -78.875 L 120.015625 -198.890625 C 120.015625 -207.734375 119.390625 -214.476562 118.140625 -219.125 C 116.898438 -223.769531 114.179688 -227.222656 109.984375 -229.484375 C 105.785156 -231.753906 99.269531 -232.890625 90.4375 -232.890625 L 81.25 -232.890625 L 81.25 -42.15625 Z M 90.78125 -42.15625 "/></g></g></g><g fill="#ffffff" fill-opacity="1"><g transform="translate(607.659435, 722.500031)"><g><path d="M 99.28125 4.078125 C 69.582031 4.078125 48.382812 -3.566406 35.6875 -18.859375 C 23 -34.160156 16.65625 -56.773438 16.65625 -86.703125 L 16.65625 -189.03125 C 16.65625 -218.945312 23 -241.441406 35.6875 -256.515625 C 48.382812 -271.585938 69.582031 -279.125 99.28125 -279.125 C 129.195312 -279.125 150.554688 -271.53125 163.359375 -256.34375 C 176.171875 -241.15625 182.578125 -218.71875 182.578125 -189.03125 L 182.578125 -86.703125 C 182.578125 -56.773438 176.171875 -34.160156 163.359375 -18.859375 C 150.554688 -3.566406 129.195312 4.078125 99.28125 4.078125 Z M 99.28125 -39.09375 C 107.882812 -39.09375 113.546875 -41.984375 116.265625 -47.765625 C 118.992188 -53.546875 120.359375 -61.421875 120.359375 -71.390625 L 120.359375 -203.984375 C 120.359375 -214.191406 118.992188 -222.128906 116.265625 -227.796875 C 113.546875 -233.460938 107.882812 -236.296875 99.28125 -236.296875 C 91.113281 -236.296875 85.671875 -233.40625 82.953125 -227.625 C 80.234375 -221.84375 78.875 -213.960938 78.875 -203.984375 L 78.875 -71.390625 C 78.875 -61.421875 80.117188 -53.546875 82.609375 -47.765625 C 85.109375 -41.984375 90.664062 -39.09375 99.28125 -39.09375 Z M 99.28125 -39.09375 "/></g></g></g><g fill="#ffffff" fill-opacity="1"><g transform="translate(806.890213, 722.500031)"><g><path d="M 99.28125 4.078125 C 69.582031 4.078125 48.382812 -3.566406 35.6875 -18.859375 C 23 -34.160156 16.65625 -56.773438 16.65625 -86.703125 L 16.65625 -189.03125 C 16.65625 -218.945312 23 -241.441406 35.6875 -256.515625 C 48.382812 -271.585938 69.582031 -279.125 99.28125 -279.125 C 129.195312 -279.125 150.554688 -271.53125 163.359375 -256.34375 C 176.171875 -241.15625 182.578125 -218.71875 182.578125 -189.03125 L 182.578125 -86.703125 C 182.578125 -56.773438 176.171875 -34.160156 163.359375 -18.859375 C 150.554688 -3.566406 129.195312 4.078125 99.28125 4.078125 Z M 99.28125 -39.09375 C 107.882812 -39.09375 113.546875 -41.984375 116.265625 -47.765625 C 118.992188 -53.546875 120.359375 -61.421875 120.359375 -71.390625 L 120.359375 -203.984375 C 120.359375 -214.191406 118.992188 -222.128906 116.265625 -227.796875 C 113.546875 -233.460938 107.882812 -236.296875 99.28125 -236.296875 C 91.113281 -236.296875 85.671875 -233.40625 82.953125 -227.625 C 80.234375 -221.84375 78.875 -213.960938 78.875 -203.984375 L 78.875 -71.390625 C 78.875 -61.421875 80.117188 -53.546875 82.609375 -47.765625 C 85.109375 -41.984375 90.664062 -39.09375 99.28125 -39.09375 Z M 99.28125 -39.09375 "/></g></g></g><g fill="#ffffff" fill-opacity="1"><g transform="translate(1006.120992, 722.500031)"><g><path d="M 20.40625 -275.390625 L 96.21875 -275.390625 C 126.363281 -275.390625 149.140625 -270.0625 164.546875 -259.40625 C 179.960938 -248.75 187.671875 -229.820312 187.671875 -202.625 C 187.671875 -184.269531 185.289062 -169.648438 180.53125 -158.765625 C 175.769531 -147.890625 166.929688 -139.394531 154.015625 -133.28125 L 191.75 0 L 128.859375 0 L 98.59375 -123.421875 L 81.25 -123.421875 L 81.25 0 L 20.40625 0 Z M 98.25 -158.4375 C 110.488281 -158.4375 119.046875 -161.664062 123.921875 -168.125 C 128.796875 -174.582031 131.234375 -184.269531 131.234375 -197.1875 C 131.234375 -209.65625 128.96875 -219.003906 124.4375 -225.234375 C 119.90625 -231.472656 112.082031 -234.59375 100.96875 -234.59375 L 81.25 -234.59375 L 81.25 -158.4375 Z M 98.25 -158.4375 "/></g></g></g><g fill="#ffffff" fill-opacity="1"><g transform="translate(1210.111551, 722.500031)"><g><path d="M 93.5 4.078125 C 67.207031 4.078125 47.65625 -2.890625 34.84375 -16.828125 C 22.039062 -30.765625 15.1875 -52.921875 14.28125 -83.296875 L 66.296875 -91.109375 C 66.523438 -73.660156 68.617188 -61.140625 72.578125 -53.546875 C 76.546875 -45.953125 82.5 -42.15625 90.4375 -42.15625 C 100.632812 -42.15625 105.734375 -48.84375 105.734375 -62.21875 C 105.734375 -72.875 103.296875 -82.050781 98.421875 -89.75 C 93.546875 -97.457031 85.894531 -105.734375 75.46875 -114.578125 L 51.671875 -135.3125 C 39.890625 -145.28125 30.769531 -155.875 24.3125 -167.09375 C 17.851562 -178.320312 14.625 -191.640625 14.625 -207.046875 C 14.625 -230.171875 21.476562 -247.960938 35.1875 -260.421875 C 48.894531 -272.890625 67.765625 -279.125 91.796875 -279.125 C 117.859375 -279.125 135.59375 -271.53125 145 -256.34375 C 154.40625 -241.15625 159.445312 -222.6875 160.125 -200.9375 L 107.78125 -194.46875 C 107.320312 -208.75 106.015625 -219.003906 103.859375 -225.234375 C 101.710938 -231.472656 97.007812 -234.59375 89.75 -234.59375 C 84.539062 -234.59375 80.519531 -232.378906 77.6875 -227.953125 C 74.851562 -223.535156 73.4375 -218.609375 73.4375 -213.171875 C 73.4375 -203.878906 75.53125 -196.054688 79.71875 -189.703125 C 83.914062 -183.359375 90.660156 -176.109375 99.953125 -167.953125 L 122.734375 -147.890625 C 136.335938 -136.328125 146.878906 -124.085938 154.359375 -111.171875 C 161.835938 -98.253906 165.578125 -82.957031 165.578125 -65.28125 C 165.578125 -52.351562 162.570312 -40.617188 156.5625 -30.078125 C 150.550781 -19.546875 142.109375 -11.21875 131.234375 -5.09375 C 120.359375 1.019531 107.78125 4.078125 93.5 4.078125 Z M 93.5 4.078125 "/></g></g></g></svg>